HIERARCHY
ROOT pelvis
{
  OFFSET 0 100 0
  CHANNELS 6 Xposition Yposition Zposition Zrotation Xrotation Yrotation
  JOINT pelvis_right_femur
  {
    OFFSET -10.78128 -3.44521 -0.5502486
    CHANNELS 3 Zrotation Xrotation Yrotation
    JOINT right_femur_tibia
    {
      OFFSET -0.8047443 -44.0398 -0.1307829
      CHANNELS 3 Zrotation Xrotation Yrotation
      JOINT right_tibia_foot
      {
        OFFSET 3.006224 -47.83518 -5
        CHANNELS 3 Zrotation Xrotation Yrotation
        End Site
        {
          OFFSET 0 -5 15
        }
      }
    }
  }
  JOINT pelvis_left_femur
  {
    OFFSET 10.78128 -3.44521 -0.5502486
    CHANNELS 3 Zrotation Xrotation Yrotation
    JOINT left_femur_tibia
    {
      OFFSET 0.8047443 -44.0398 -0.1307829
      CHANNELS 3 Zrotation Xrotation Yrotation
      JOINT left_tibia_foot
      {
        OFFSET -4.370144 -48.10324 -4.275266
        CHANNELS 3 Zrotation Xrotation Yrotation
        End Site
        {
          OFFSET 0 -5 15
        }
      }
    }
  }
  JOINT pelvis_spine1
  {
    OFFSET 0 6.468898 -3.129235
    CHANNELS 3 Zrotation Xrotation Yrotation
    JOINT spine1
    {
      OFFSET 0 23.15396 4.99043
      CHANNELS 3 Zrotation Xrotation Yrotation
      JOINT spine2
      {
        OFFSET 0 20.79997 -5.064912
        CHANNELS 3 Zrotation Xrotation Yrotation
        JOINT neck
        {
          OFFSET 0 14.38658 9.616178
          CHANNELS 3 Zrotation Xrotation Yrotation
          End Site
          {
            OFFSET 0 20 0
          }
        }
      }
      JOINT right_manubrium
      {
        OFFSET -5.722621 16.35077 3.967754
        CHANNELS 3 Zrotation Xrotation Yrotation
        JOINT right_clavicle
        {
          OFFSET -13.16364 1.694482 -4.693211
          CHANNELS 3 Zrotation Xrotation Yrotation
          JOINT right_humerus
          {
            OFFSET -28.5034 -0.3100689 -2.792744
            CHANNELS 3 Zrotation Xrotation Yrotation
            JOINT right_radius
            {
              OFFSET -25.15693 0.02248979 -1.271978
              CHANNELS 3 Zrotation Xrotation Yrotation
              End Site
              {
                OFFSET -15 0 0
              }
            }
          }
        }
      }
      JOINT left_manubrium
      {
        OFFSET 5.722621 16.35077 3.967754
        CHANNELS 3 Zrotation Xrotation Yrotation
        JOINT left_clavicle
        {
          OFFSET 13.16364 1.694482 -4.693211
          CHANNELS 3 Zrotation Xrotation Yrotation
          JOINT left_humerus
          {
            OFFSET 29.39168 -1.063119 -2.237045
            CHANNELS 3 Zrotation Xrotation Yrotation
            JOINT left_radius
            {
              OFFSET 24.59957 -0.9528479 0.9047498
              CHANNELS 3 Zrotation Xrotation Yrotation
              End Site
              {
                OFFSET 15 -0 -0
              }
            }
          }
        }
      }
    }
  }
}
MOTION
Frames: 7
Frame Time: 0.0416666666667
0 103.5113 0 2.10137 -0.2640259 -0.1376478 4.058955 -14.75671 13.21084 -0 36.09633 -0 -3.170725 -17.47637 -4.417993 -8.317231 9.270861 -20.83684 -0 6.531676 -0 21.60953 -9.694678 30.03816 -2.863541 -2.647381 5.245273 2.816846 10.8095 -6.80663 2.136361 22.00264 5.875083 1.973086 -25.40473 10.58128 6.242729 -19.61721 11.73214 86.23577 38.99282 -17.97676 -0 0 13.5269 -5.350585 9.203411 4.278537 4.623566 -18.75668 -2.264963 -92.18656 22.73388 21.15231 0 0 -17.29571 15.17228 13.60707 -2.277553
0.4442153 103.6044 1.653327 1.644878 0.9591946 -0.2661428 4.95859 -18.2861 13.40538 -0 36.07647 -0 -3.51865 -17.21984 -4.225244 -8.345995 9.808095 -21.00987 -0 6.312861 -0 21.51027 -10.74914 30.2616 -2.8932 -2.510923 5.175155 2.983345 10.68805 -6.834514 1.946146 21.9349 6.238392 2.057836 -25.89909 10.80259 5.942994 -19.75787 11.79965 86.66874 39.36864 -18.37186 -0 0 13.04398 -4.983586 8.671161 4.470522 4.526464 -18.7623 -2.503328 -91.70073 22.71002 20.97773 0 0 -18.92648 15.61435 12.49826 -2.589023
0.7691133 103.5189 3.49556 1.343055 0.424845 -0.3050035 4.783457 -19.42584 10.5252 -0 34.25234 -0 -4.998171 -15.81489 -3.660118 -7.996618 10.70476 -20.97026 -0 6.839142 -0 18.26801 -13.05543 28.9686 -2.731986 -2.348166 4.910519 3.237012 10.56511 -7.085388 1.760044 21.86512 6.129466 2.033098 -25.88223 10.29878 5.909329 -19.33062 11.7802 86.58615 38.13727 -18.80954 -0 0 12.54201 -5.618392 8.529037 4.933129 4.357455 -18.85455 -2.73497 -91.58624 23.08527 20.78609 0 0 -18.71383 13.9178 12.39666 -0.9248978
1.019428 103.4013 5.544246 0.9076407 0.8916747 -0.3231048 5.297746 -22.23891 9.425907 -0 32.71296 -0 -5.818673 -14.5585 -3.258583 -7.765919 11.32293 -20.70139 -0 7.1876 -0 16.93288 -14.57851 28.25353 -2.695973 -2.270973 4.728861 3.487344 10.40301 -7.256397 1.553396 21.78943 6.264488 2.054076 -26.29725 10.18844 5.727959 -19.29137 11.79186 86.77928 37.64144 -19.29411 -0 0 12.1715 -5.669615 8.091529 5.234496 4.223927 -18.87744 -2.938049 -91.47415 23.42026 20.7873 0 0 -19.27468 13.22635 11.87091 -0.1975754
1.217727 103.2132 7.814291 0.5136868 1.359188 -0.2940254 5.784811 -24.82558 8.601723 -0 30.98164 -0 -6.414161 -13.25598 -2.913894 -7.525706 11.83015 -20.33174 -0 7.555666 -0 15.73437 -15.90312 27.48731 -2.654311 -2.198719 4.568137 3.668688 10.28493 -7.400201 1.407049 21.74319 6.304881 2.059204 -26.49533 10.01144 5.640678 -19.17819 11.79558 86.84496 37.11183 -19.61978 -0 0 11.89983 -5.855475 7.851609 5.495995 4.113332 -18.8994 -3.0887 -91.4155 23.71305 20.75735 0 0 -19.45842 12.43576 11.61664 0.6020791
1.380279 102.9569 10.36901 0.1096387 1.936874 -0.2106451 6.384756 -27.52752 8.031237 -0 28.81554 -0 -6.917319 -11.75268 -2.578583 -7.276603 12.27462 -19.7726 -0 8.129065 -0 14.87494 -16.98846 26.69477 -2.636782 -2.130191 4.409804 3.843272 10.15932 -7.529434 1.257588 21.69729 6.39121 2.077414 -26.73135 9.895194 5.533469 -19.11044 11.80656 86.9592 36.73264 -19.93876 -0 0 11.62433 -5.98075 7.588128 5.748723 4.014199 -18.91388 -3.235082 -91.31107 23.95831 20.70634 0 0 -19.78142 11.82378 11.28545 1.224273
1.518349 102.6248 13.26486 -0.2509789 2.398449 -0.06754517 6.912488 -29.79643 7.423492 -0 26.32611 -0 -7.429185 -10.07253 -2.225286 -7.012163 12.69861 -19.06276 -0 9.024211 -0 14.09049 -17.78779 25.75558 -2.622798 -2.062878 4.272125 3.976156 10.06108 -7.634983 1.138791 21.66285 6.455472 2.095175 -26.87414 9.781401 5.459084 -19.02772 11.81812 87.04291 36.42466 -20.18047 -0 0 11.38569 -6.135898 7.414426 5.970601 3.93568 -18.93238 -3.355283 -91.19192 24.13553 20.61716 0 0 -20.0241 11.28982 11.02966 1.761079
